<svg width="20" height="20" viewBox="0 0 20 20" fill="none" xmlns="http://www.w3.org/2000/svg">
<g clip-path="url(#clip0_15001_38809)">
<path d="M0.725 0.800781C0.7125 0.803906 0.7 0.808594 0.6875 0.813281C0.298438 0.867969 0 1.19766 0 1.60078C0 2.04297 0.357812 2.40078 0.8 2.40078C1.24219 2.40078 1.6 2.04297 1.6 1.60078H3.4625C3.96094 1.60078 4.22031 1.70391 4.4125 1.87578C4.60156 2.04609 4.75469 2.33359 4.8875 2.77578L8.0875 15.6883C8.20781 16.1461 8.32812 16.618 8.6625 17.0008C8.80156 17.1602 8.97656 17.2898 9.1875 17.3883C8.95312 17.6664 8.8 18.0117 8.8 18.4008C8.8 19.2805 9.52031 20.0008 10.4 20.0008C11.2797 20.0008 12 19.2805 12 18.4008C12 18.107 11.9141 17.8383 11.775 17.6008H14.225C14.0859 17.8383 14 18.107 14 18.4008C14 19.2805 14.7203 20.0008 15.6 20.0008C16.4797 20.0008 17.2 19.2805 17.2 18.4008C17.2 17.9898 17.0328 17.6227 16.775 17.3383C16.8203 17.2164 16.8016 17.0789 16.7281 16.9727C16.6531 16.8648 16.5312 16.8008 16.4 16.8008H10.2875C9.67031 16.8008 9.41875 16.6695 9.25 16.4758C9.08281 16.2836 8.98125 15.9477 8.8625 15.5008V15.4883L8.5875 14.4008H15.925C16.0922 14.4008 16.2437 14.2961 16.3 14.1383L19.175 6.53828C19.2219 6.41641 19.2047 6.27891 19.1297 6.17109C19.0547 6.06328 18.9312 5.99922 18.8 6.00078H17.825C17.8203 5.99609 17.8172 5.99297 17.8125 5.98828L14.425 2.60078C14.3422 2.51172 14.2219 2.46641 14.1 2.47578C14.0094 2.48828 13.925 2.53359 13.8625 2.60078L12.55 3.92578L11.225 2.60078C11.1422 2.51172 11.0219 2.46641 10.9 2.47578C10.8094 2.48828 10.725 2.53359 10.6625 2.60078L7.275 5.98828C7.27031 5.99297 7.26719 5.99609 7.2625 6.00078H6.5125L5.6625 2.58828C5.6625 2.58047 5.6625 2.57109 5.6625 2.56328C5.50938 2.04766 5.31094 1.60078 4.95 1.27578C4.58906 0.950781 4.08125 0.800781 3.4625 0.800781H0.8C0.7875 0.800781 0.775 0.800781 0.7625 0.800781C0.75 0.800781 0.7375 0.800781 0.725 0.800781ZM10.95 3.45078L12.1375 4.63828C12.175 4.75391 12.2625 4.84453 12.375 4.88828C12.3875 4.89297 12.4 4.89766 12.4125 4.90078L13.5 6.00078H8.3875L10.95 3.45078ZM14.15 3.45078L16.7 6.00078H14.625C14.6203 5.99609 14.6172 5.99297 14.6125 5.98828L13.1125 4.48828L14.15 3.45078ZM6.7125 6.80078H18.225L15.65 13.6008H8.4L6.7125 6.80078ZM10.4 17.6008C10.8469 17.6008 11.2 17.9539 11.2 18.4008C11.2 18.8477 10.8469 19.2008 10.4 19.2008C9.95312 19.2008 9.6 18.8477 9.6 18.4008C9.6 17.9539 9.95312 17.6008 10.4 17.6008ZM15.6 17.6008C16.0469 17.6008 16.4 17.9539 16.4 18.4008C16.4 18.8477 16.0469 19.2008 15.6 19.2008C15.1531 19.2008 14.8 18.8477 14.8 18.4008C14.8 17.9539 15.1531 17.6008 15.6 17.6008Z" fill="#6B7280"/>
</g>
<defs>
<clipPath id="clip0_15001_38809">
<rect width="20" height="20" fill="white"/>
</clipPath>
</defs>
</svg>
