<svg width="20" height="20" viewBox="0 0 20 20" fill="none" xmlns="http://www.w3.org/2000/svg">
<path d="M2.39961 1.60156C1.96238 1.60156 1.59961 1.96434 1.59961 2.40156V5.60156C1.59961 6.03879 1.96238 6.40156 2.39961 6.40156H5.59961C6.03683 6.40156 6.39961 6.03879 6.39961 5.60156V2.40156C6.39961 1.96434 6.03683 1.60156 5.59961 1.60156H2.39961ZM8.39961 1.60156C7.96238 1.60156 7.59961 1.96434 7.59961 2.40156V5.60156C7.59961 6.03879 7.96238 6.40156 8.39961 6.40156H11.5996C12.0368 6.40156 12.3996 6.03879 12.3996 5.60156V2.40156C12.3996 1.96434 12.0368 1.60156 11.5996 1.60156H8.39961ZM14.3996 1.60156C13.9624 1.60156 13.5996 1.96434 13.5996 2.40156V5.60156C13.5996 6.03879 13.9624 6.40156 14.3996 6.40156H17.5996C18.0368 6.40156 18.3996 6.03879 18.3996 5.60156V2.40156C18.3996 1.96434 18.0368 1.60156 17.5996 1.60156H14.3996ZM2.39961 2.40156H5.59961V5.60156H2.39961V2.40156ZM8.39961 2.40156H11.5996V5.60156H8.39961V2.40156ZM14.3996 2.40156H17.5996V5.60156H14.3996V2.40156ZM2.39961 7.60156C1.96238 7.60156 1.59961 7.96434 1.59961 8.40156V11.6016C1.59961 12.0388 1.96238 12.4016 2.39961 12.4016H5.59961C6.03683 12.4016 6.39961 12.0388 6.39961 11.6016V8.40156C6.39961 7.96434 6.03683 7.60156 5.59961 7.60156H2.39961ZM8.39961 7.60156C7.96238 7.60156 7.59961 7.96434 7.59961 8.40156V11.6016C7.59961 12.0388 7.96238 12.4016 8.39961 12.4016H11.5996C12.0368 12.4016 12.3996 12.0388 12.3996 11.6016V8.40156C12.3996 7.96434 12.0368 7.60156 11.5996 7.60156H8.39961ZM14.3996 7.60156C13.9624 7.60156 13.5996 7.96434 13.5996 8.40156V11.6016C13.5996 12.0388 13.9624 12.4016 14.3996 12.4016H17.5996C18.0368 12.4016 18.3996 12.0388 18.3996 11.6016V8.40156C18.3996 7.96434 18.0368 7.60156 17.5996 7.60156H14.3996ZM2.39961 8.40156H5.59961V11.6016H2.39961V8.40156ZM8.39961 8.40156H11.5996V11.6016H8.39961V8.40156ZM14.3996 8.40156H17.5996V11.6016H14.3996V8.40156ZM2.39961 13.6016C1.96238 13.6016 1.59961 13.9643 1.59961 14.4016V17.6016C1.59961 18.0388 1.96238 18.4016 2.39961 18.4016H5.59961C6.03683 18.4016 6.39961 18.0388 6.39961 17.6016V14.4016C6.39961 13.9643 6.03683 13.6016 5.59961 13.6016H2.39961ZM8.39961 13.6016C7.96238 13.6016 7.59961 13.9643 7.59961 14.4016V17.6016C7.59961 18.0388 7.96238 18.4016 8.39961 18.4016H11.5996C12.0368 18.4016 12.3996 18.0388 12.3996 17.6016V14.4016C12.3996 13.9643 12.0368 13.6016 11.5996 13.6016H8.39961ZM14.3996 13.6016C13.9624 13.6016 13.5996 13.9643 13.5996 14.4016V17.6016C13.5996 18.0388 13.9624 18.4016 14.3996 18.4016H17.5996C18.0368 18.4016 18.3996 18.0388 18.3996 17.6016V14.4016C18.3996 13.9643 18.0368 13.6016 17.5996 13.6016H14.3996ZM2.39961 14.4016H5.59961V17.6016H2.39961V14.4016ZM8.39961 14.4016H11.5996V17.6016H8.39961V14.4016ZM14.3996 14.4016H17.5996V17.6016H14.3996V14.4016Z" fill="#6B7280"/>
</svg>
