<svg width="16" height="16" viewBox="0 0 16 16" fill="none" xmlns="http://www.w3.org/2000/svg">
<path d="M7.99491 4.4805C7.91116 4.48175 7.83241 4.5155 7.77366 4.57425L1.37367 10.9743C1.28992 11.0543 1.25617 11.1743 1.28617 11.2855C1.31492 11.398 1.40242 11.4855 1.51492 11.5143C1.62617 11.5443 1.74617 11.5105 1.82617 11.4268L7.99991 5.253L14.1737 11.4268C14.2537 11.5105 14.3737 11.5443 14.4849 11.5143C14.5974 11.4855 14.6849 11.398 14.7137 11.2855C14.7437 11.1743 14.7099 11.0543 14.6262 10.9743L8.22616 4.57425C8.16491 4.513 8.08116 4.47925 7.99491 4.4805Z" fill="#40444C"/>
</svg>
