<svg width="33" height="32" viewBox="0 0 33 32" fill="none" xmlns="http://www.w3.org/2000/svg">
<g clip-path="url(#clip0_15162_1791)">
<path d="M16.4531 3.83984C15.4006 3.83984 14.5331 4.70734 14.5331 5.75984V6.65984C13.2881 6.95234 12.2006 7.52984 11.3631 8.37234C10.1131 9.63484 9.41313 11.4223 9.41313 13.4798V18.4723C9.41313 19.6473 8.77063 21.1373 8.10813 22.2423L6.96062 23.9648C6.83063 24.1623 6.81813 24.4148 6.92813 24.6223C7.04063 24.8298 7.25813 24.9598 7.49312 24.9598H13.2531C13.2531 26.7173 14.6956 28.1598 16.4531 28.1598C18.2106 28.1598 19.6531 26.7173 19.6531 24.9598H25.4131C25.6481 24.9598 25.8656 24.8298 25.9781 24.6223C26.0881 24.4148 26.0756 24.1623 25.9456 23.9648L24.8031 22.2498L24.8006 22.2473C24.1306 21.1298 23.4931 19.7348 23.4931 18.5598V13.5673C23.4931 10.1323 21.4481 7.47234 18.3731 6.68234V5.75984C18.3731 4.70734 17.5056 3.83984 16.4531 3.83984ZM16.4531 5.11984C16.8081 5.11984 17.0931 5.40484 17.0931 5.75984V6.47234C16.9506 6.45984 16.8106 6.44484 16.6656 6.43984C16.5981 6.41484 16.5256 6.40234 16.4531 6.39984C16.3831 6.39984 16.3156 6.41234 16.2506 6.43734C16.1006 6.43984 15.9581 6.45484 15.8131 6.46484V5.75984C15.8131 5.40484 16.0981 5.11984 16.4531 5.11984ZM2.68063 6.06484C1.25312 8.38484 0.453125 11.1473 0.453125 14.0798C0.453125 17.0123 1.25312 19.7748 2.68063 22.0948L3.77312 21.4248C2.47063 19.3073 1.73312 16.7798 1.73312 14.0798C1.73312 11.3798 2.47063 8.85234 3.77312 6.73484L2.68063 6.06484ZM30.2256 6.06484L29.1331 6.73484C30.4356 8.85234 31.1731 11.3798 31.1731 14.0798C31.1731 16.7798 30.4356 19.3073 29.1331 21.4248L30.2256 22.0948C31.6531 19.7748 32.4531 17.0123 32.4531 14.0798C32.4531 11.1473 31.6531 8.38484 30.2256 6.06484ZM16.4531 7.67984C19.9806 7.67984 22.2131 10.0273 22.2131 13.5673V18.5598C22.2131 20.1673 22.9831 21.7073 23.7031 22.9098C23.7106 22.9173 23.7156 22.9273 23.7206 22.9348L24.2156 23.6798H8.69063L9.18563 22.9348C9.19063 22.9273 9.19562 22.9173 9.20312 22.9098C9.93062 21.6973 10.6931 20.0798 10.6931 18.4723V13.4798C10.6931 11.7098 11.2781 10.2773 12.2731 9.27484C13.2656 8.27234 14.6856 7.67984 16.4531 7.67984ZM5.45562 7.76984C4.29062 9.65234 3.65312 11.7473 3.65312 14.0798C3.65312 16.4298 4.37562 18.5898 5.45063 20.3823L6.54813 19.7223C5.57813 18.1023 4.93313 16.1673 4.93313 14.0798C4.93313 11.9748 5.49062 10.1448 6.54312 8.44234L5.45562 7.76984ZM27.4506 7.76984L26.3631 8.44234C27.4156 10.1448 27.9731 11.9748 27.9731 14.0798C27.9731 16.1673 27.3281 18.1023 26.3556 19.7223L27.4556 20.3823C28.5306 18.5898 29.2531 16.4298 29.2531 14.0798C29.2531 11.7473 28.6156 9.65234 27.4506 7.76984ZM14.5331 24.9598H18.3731C18.3731 26.0198 17.5131 26.8798 16.4531 26.8798C15.3931 26.8798 14.5331 26.0198 14.5331 24.9598Z" fill="#6B7280"/>
</g>
<defs>
<clipPath id="clip0_15162_1791">
<rect width="32" height="32" fill="white" transform="translate(0.453125)"/>
</clipPath>
</defs>
</svg>
