<svg width="33" height="32" viewBox="0 0 33 32" fill="none" xmlns="http://www.w3.org/2000/svg">
<g clip-path="url(#clip0_15162_1786)">
<path d="M1.55062 1.2793C1.53062 1.2843 1.51063 1.2918 1.49063 1.2993C0.868125 1.3868 0.390625 1.9143 0.390625 2.5593C0.390625 3.2668 0.963125 3.8393 1.67062 3.8393C2.37813 3.8393 2.95062 3.2668 2.95062 2.5593H5.93062C6.72813 2.5593 7.14312 2.7243 7.45062 2.9993C7.75312 3.2718 7.99813 3.7318 8.21062 4.4393L13.3306 25.0993C13.5231 25.8318 13.7156 26.5868 14.2506 27.1993C14.4731 27.4543 14.7531 27.6618 15.0906 27.8193C14.7156 28.2643 14.4706 28.8168 14.4706 29.4393C14.4706 30.8468 15.6231 31.9993 17.0306 31.9993C18.4381 31.9993 19.5906 30.8468 19.5906 29.4393C19.5906 28.9693 19.4531 28.5393 19.2306 28.1593H23.1506C22.9281 28.5393 22.7906 28.9693 22.7906 29.4393C22.7906 30.8468 23.9431 31.9993 25.3506 31.9993C26.7581 31.9993 27.9106 30.8468 27.9106 29.4393C27.9106 28.7818 27.6431 28.1943 27.2306 27.7393C27.3031 27.5443 27.2731 27.3243 27.1556 27.1543C27.0356 26.9818 26.8406 26.8793 26.6306 26.8793H16.8506C15.8631 26.8793 15.4606 26.6693 15.1906 26.3593C14.9231 26.0518 14.7606 25.5143 14.5706 24.7993V24.7793L14.1306 23.0393H25.8706C26.1381 23.0393 26.3806 22.8718 26.4706 22.6193L31.0706 10.4593C31.1456 10.2643 31.1181 10.0443 30.9981 9.8718C30.8781 9.6993 30.6806 9.5968 30.4706 9.5993H10.8106L9.45062 4.1393C9.45062 4.1268 9.45062 4.1118 9.45062 4.0993C9.20563 3.2743 8.88813 2.5593 8.31062 2.0393C7.73312 1.5193 6.92062 1.2793 5.93062 1.2793H1.67062C1.65062 1.2793 1.63063 1.2793 1.61063 1.2793C1.59062 1.2793 1.57062 1.2793 1.55062 1.2793ZM11.1306 10.8793H29.5506L25.4306 21.7593H13.8306L11.1306 10.8793ZM17.0306 28.1593C17.7456 28.1593 18.3106 28.7243 18.3106 29.4393C18.3106 30.1543 17.7456 30.7193 17.0306 30.7193C16.3156 30.7193 15.7506 30.1543 15.7506 29.4393C15.7506 28.7243 16.3156 28.1593 17.0306 28.1593ZM25.3506 28.1593C26.0656 28.1593 26.6306 28.7243 26.6306 29.4393C26.6306 30.1543 26.0656 30.7193 25.3506 30.7193C24.6356 30.7193 24.0706 30.1543 24.0706 29.4393C24.0706 28.7243 24.6356 28.1593 25.3506 28.1593Z" fill="#6B7280"/>
</g>
<defs>
<clipPath id="clip0_15162_1786">
<rect width="32" height="32" fill="white" transform="translate(0.390625)"/>
</clipPath>
</defs>
</svg>
