<svg width="20" height="20" viewBox="0 0 20 20" fill="none" xmlns="http://www.w3.org/2000/svg">
<path d="M0 2.80078V17.2008H20V2.80078H0ZM0.8 3.60078H19.2V4.60078C19.0438 4.73672 12.0297 10.8555 11.375 11.4258L11.3375 11.4633C10.8188 11.9148 10.2875 12.0008 10 12.0008C9.71406 12.0008 9.18125 11.9148 8.6625 11.4633C8.51406 11.3336 7.44531 10.4102 6.675 9.73828C4.38906 7.74453 0.917188 4.70391 0.8 4.60078V3.60078ZM0.8 5.66328C1.49375 6.26797 3.95469 8.41016 6.05 10.2383L0.8 14.3883V5.66328ZM19.2 5.66328V14.3883L13.95 10.2383C16.0453 8.41016 18.5063 6.26797 19.2 5.66328ZM6.6625 10.7758C7.14844 11.1992 8.02656 11.9664 8.1375 12.0633L8.15 12.0758C8.82656 12.657 9.54531 12.8008 10 12.8008C10.4578 12.8008 11.1828 12.6555 11.8625 12.0633C11.975 11.9664 12.8594 11.2039 13.35 10.7758L19.2 15.4008V16.4008H0.8V15.4008L6.6625 10.7758Z" fill="#6B7280"/>
</svg>
