<svg width="33" height="32" viewBox="0 0 33 32" fill="none" xmlns="http://www.w3.org/2000/svg">
<path d="M16.5158 2.60547C8.43082 2.60547 1.84082 8.27047 1.84082 15.3605C1.84082 19.4755 4.09582 23.058 7.55832 25.4005C7.55332 25.538 7.56332 25.7605 7.38332 26.4305C7.15832 27.258 6.70582 28.4255 5.78832 29.7405L5.13582 30.6755H6.27582C10.2258 30.6755 12.5108 28.1005 12.8658 27.688C14.0408 27.963 15.2508 28.1155 16.5158 28.1155C24.6008 28.1155 31.1908 22.4505 31.1908 15.3605C31.1908 8.27047 24.6008 2.60547 16.5158 2.60547ZM16.5158 3.79547C24.0483 3.79547 30.0008 9.01047 30.0008 15.3605C30.0008 21.7105 24.0483 26.9255 16.5158 26.9255C15.2108 26.9255 13.9808 26.8005 12.8258 26.498L12.4558 26.4005L12.2133 26.698C12.2133 26.698 10.3658 28.783 7.41582 29.2855C7.95082 28.3205 8.34582 27.4205 8.52832 26.7405C8.78582 25.793 8.79082 25.153 8.79082 25.153V24.8255L8.51582 24.6505C5.13582 22.5005 3.03082 19.173 3.03082 15.3605C3.03082 9.01047 8.98332 3.79547 16.5158 3.79547ZM10.1158 14.0805C9.40832 14.0805 8.83582 14.653 8.83582 15.3605C8.83582 16.068 9.40832 16.6405 10.1158 16.6405C10.8233 16.6405 11.3958 16.068 11.3958 15.3605C11.3958 14.653 10.8233 14.0805 10.1158 14.0805ZM16.5158 14.0805C15.8083 14.0805 15.2358 14.653 15.2358 15.3605C15.2358 16.068 15.8083 16.6405 16.5158 16.6405C17.2233 16.6405 17.7958 16.068 17.7958 15.3605C17.7958 14.653 17.2233 14.0805 16.5158 14.0805ZM22.9158 14.0805C22.2083 14.0805 21.6358 14.653 21.6358 15.3605C21.6358 16.068 22.2083 16.6405 22.9158 16.6405C23.6233 16.6405 24.1958 16.068 24.1958 15.3605C24.1958 14.653 23.6233 14.0805 22.9158 14.0805Z" fill="#6B7280"/>
</svg>
