<svg width="20" height="20" viewBox="0 0 20 20" fill="none" xmlns="http://www.w3.org/2000/svg">
<path d="M12.4 1.59961C7.76563 1.59961 4 5.36523 4 9.99961C4 14.634 7.76563 18.3996 12.4 18.3996C13.5953 18.3996 14.7312 18.1465 15.7609 17.6965C15.9062 17.6324 16 17.4887 16 17.3293C16 17.1699 15.9062 17.0262 15.7609 16.9621C13.0781 15.7902 11.2 13.1184 11.2 9.99961C11.2 6.88086 13.0781 4.20898 15.7609 3.03711C15.9062 2.97305 16 2.8293 16 2.66992C16 2.51055 15.9062 2.3668 15.7609 2.30273C14.7312 1.85273 13.5953 1.59961 12.4 1.59961ZM12.4 2.39961C13.1938 2.39961 13.9422 2.55898 14.6625 2.78711C12.1422 4.23711 10.4 6.88711 10.4 9.99961C10.4 13.1121 12.1422 15.7621 14.6625 17.2121C13.9422 17.4402 13.1938 17.5996 12.4 17.5996C8.19844 17.5996 4.8 14.2012 4.8 9.99961C4.8 5.79805 8.19844 2.39961 12.4 2.39961Z" fill="#6B7280"/>
</svg>
