<svg width="20" height="20" viewBox="0 0 20 20" fill="none" xmlns="http://www.w3.org/2000/svg">
<path d="M2.4001 7.59961C1.96287 7.59961 1.6001 7.96238 1.6001 8.39961V11.5996C1.6001 12.0368 1.96287 12.3996 2.4001 12.3996H5.6001C6.03732 12.3996 6.4001 12.0368 6.4001 11.5996V8.39961C6.4001 7.96238 6.03732 7.59961 5.6001 7.59961H2.4001ZM8.4001 7.59961C7.96287 7.59961 7.6001 7.96238 7.6001 8.39961V11.5996C7.6001 12.0368 7.96287 12.3996 8.4001 12.3996H11.6001C12.0373 12.3996 12.4001 12.0368 12.4001 11.5996V8.39961C12.4001 7.96238 12.0373 7.59961 11.6001 7.59961H8.4001ZM14.4001 7.59961C13.9629 7.59961 13.6001 7.96238 13.6001 8.39961V11.5996C13.6001 12.0368 13.9629 12.3996 14.4001 12.3996H17.6001C18.0373 12.3996 18.4001 12.0368 18.4001 11.5996V8.39961C18.4001 7.96238 18.0373 7.59961 17.6001 7.59961H14.4001ZM2.4001 8.39961H5.6001V11.5996H2.4001V8.39961ZM8.4001 8.39961H11.6001V11.5996H8.4001V8.39961ZM14.4001 8.39961H17.6001V11.5996H14.4001V8.39961Z" fill="#6B7280"/>
</svg>
