<svg width="20" height="20" viewBox="0 0 20 20" fill="none" xmlns="http://www.w3.org/2000/svg">
<path d="M8.39961 1.19922C4.64805 1.19922 1.59961 4.24766 1.59961 7.99922C1.59961 11.7508 4.64805 14.7992 8.39961 14.7992C9.88398 14.7992 11.2559 14.3211 12.3746 13.5117L17.6371 18.7617L18.7621 17.6367L13.5621 12.4242C14.584 11.2336 15.1996 9.68828 15.1996 7.99922C15.1996 4.24766 12.1512 1.19922 8.39961 1.19922ZM8.39961 1.99922C11.7184 1.99922 14.3996 4.68047 14.3996 7.99922C14.3996 11.318 11.7184 13.9992 8.39961 13.9992C5.08086 13.9992 2.39961 11.318 2.39961 7.99922C2.39961 4.68047 5.08086 1.99922 8.39961 1.99922Z" fill="#6B7280"/>
</svg>
