<svg width="20" height="20" viewBox="0 0 20 20" fill="none" xmlns="http://www.w3.org/2000/svg">
<path d="M9.99383 1.59376C9.97445 1.59418 9.95513 1.596 9.93602 1.59922H2.00008C1.894 1.59923 1.79226 1.64138 1.71725 1.71639C1.64224 1.79141 1.60009 1.89314 1.60008 1.99922V9.93204C1.59294 9.97523 1.59294 10.0193 1.60008 10.0625V17.9992C1.60009 18.1053 1.64224 18.207 1.71725 18.2821C1.79226 18.3571 1.894 18.3992 2.00008 18.3992H9.93289C9.97609 18.4064 10.0202 18.4064 10.0634 18.3992H18.0001C18.1062 18.3992 18.2079 18.3571 18.2829 18.2821C18.3579 18.207 18.4001 18.1053 18.4001 17.9992V10.0664C18.4072 10.0232 18.4072 9.97914 18.4001 9.93594V1.99922C18.4001 1.89314 18.3579 1.79141 18.2829 1.71639C18.2079 1.64138 18.1062 1.59923 18.0001 1.59922H10.0618C10.0393 1.59547 10.0166 1.59364 9.99383 1.59376ZM2.40008 2.39922H9.60008V9.59922H2.40008V2.39922ZM10.4001 2.39922H17.6001V9.59922H10.4001V2.39922ZM2.40008 10.3992H9.60008V17.5992H2.40008V10.3992ZM10.4001 10.3992H17.6001V17.5992H10.4001V10.3992Z" fill="#6B7280"/>
</svg>
