<svg width="20" height="20" viewBox="0 0 20 20" fill="none" xmlns="http://www.w3.org/2000/svg">
<path d="M9.96231 1.58774C9.94513 1.59087 9.92794 1.59556 9.91231 1.60024C9.72638 1.64243 9.59513 1.80962 9.59981 2.00024V4.40024C9.59825 4.54399 9.67325 4.67837 9.79825 4.75181C9.92325 4.82368 10.0764 4.82368 10.2014 4.75181C10.3264 4.67837 10.4014 4.54399 10.3998 4.40024V2.00024C10.4045 1.88462 10.3576 1.77368 10.2748 1.69556C10.1904 1.61587 10.0764 1.57681 9.96231 1.58774ZM4.26231 3.93774C4.11231 3.96431 3.992 4.07368 3.94981 4.21899C3.90763 4.36587 3.95138 4.52212 4.06231 4.62524L5.76231 6.32524C5.85919 6.44399 6.01388 6.49868 6.16388 6.46431C6.31231 6.42993 6.4295 6.31275 6.46388 6.16431C6.49825 6.01431 6.44356 5.85962 6.32481 5.76274L4.62481 4.06274C4.542 3.97368 4.42169 3.92837 4.29981 3.93774C4.28731 3.93774 4.27481 3.93774 4.26231 3.93774ZM15.6123 3.93774C15.5217 3.95024 15.4373 3.99556 15.3748 4.06274L13.6748 5.76274C13.5561 5.85962 13.5014 6.01431 13.5358 6.16431C13.5701 6.31275 13.6873 6.42993 13.8358 6.46431C13.9858 6.49868 14.1404 6.44399 14.2373 6.32524L15.9373 4.62524C16.0623 4.50649 16.0983 4.32056 16.0248 4.16431C15.9498 4.00649 15.7842 3.91587 15.6123 3.93774ZM9.96231 6.00025C9.94981 6.00337 9.93731 6.00806 9.92482 6.01274C9.89981 6.01431 9.87481 6.01899 9.84981 6.02524C9.84513 6.02993 9.842 6.03306 9.83731 6.03774C7.71544 6.12837 5.99981 7.85649 5.99981 10.0002C5.99981 12.2018 7.79825 14.0002 9.99981 14.0002C12.2014 14.0002 13.9998 12.2018 13.9998 10.0002C13.9998 7.86431 12.2983 6.14243 10.1873 6.03774C10.1733 6.03774 10.1639 6.02524 10.1498 6.02524C10.1092 6.00962 10.067 6.00181 10.0248 6.00025C10.017 6.00025 10.0076 6.00025 9.99981 6.00025C9.98732 6.00025 9.97481 6.00025 9.96231 6.00025ZM9.97481 6.80024C9.98263 6.80024 9.992 6.80024 9.99981 6.80024C10.0123 6.80024 10.0248 6.80024 10.0373 6.80024C11.7873 6.82056 13.1998 8.24556 13.1998 10.0002C13.1998 11.769 11.7686 13.2002 9.99981 13.2002C8.23263 13.2002 6.79981 11.769 6.79981 10.0002C6.79981 8.24087 8.21856 6.81431 9.97481 6.80024ZM1.88731 9.60024C1.667 9.63149 1.51231 9.83618 1.54356 10.0565C1.57481 10.2768 1.7795 10.4315 1.99981 10.4002H4.39981C4.54356 10.4018 4.67794 10.3268 4.75138 10.2018C4.82325 10.0768 4.82325 9.92368 4.75138 9.79868C4.67794 9.67368 4.54356 9.59868 4.39981 9.60024H1.99981C1.98731 9.60024 1.97481 9.60024 1.96231 9.60024C1.94981 9.60024 1.93731 9.60024 1.92481 9.60024C1.91231 9.60024 1.89981 9.60024 1.88731 9.60024ZM15.4873 9.60024C15.267 9.63149 15.1123 9.83618 15.1436 10.0565C15.1748 10.2768 15.3795 10.4315 15.5998 10.4002H17.9998C18.1436 10.4018 18.2779 10.3268 18.3514 10.2018C18.4233 10.0768 18.4233 9.92368 18.3514 9.79868C18.2779 9.67368 18.1436 9.59868 17.9998 9.60024H15.5998C15.5873 9.60024 15.5748 9.60024 15.5623 9.60024C15.5498 9.60024 15.5373 9.60024 15.5248 9.60024C15.5123 9.60024 15.4998 9.60024 15.4873 9.60024ZM5.99981 13.5502C5.90919 13.5627 5.82481 13.6081 5.76231 13.6752L4.06231 15.3752C3.94356 15.4721 3.88888 15.6268 3.92325 15.7768C3.95763 15.9252 4.07481 16.0424 4.22325 16.0768C4.37325 16.1112 4.52794 16.0565 4.62481 15.9377L6.32481 14.2377C6.44356 14.1237 6.4795 13.9471 6.41544 13.7956C6.35294 13.644 6.20138 13.5471 6.03731 13.5502C6.02481 13.5502 6.01231 13.5502 5.99981 13.5502ZM13.8748 13.5502C13.7248 13.5768 13.6045 13.6862 13.5623 13.8315C13.5201 13.9784 13.5639 14.1346 13.6748 14.2377L15.3748 15.9377C15.4717 16.0565 15.6264 16.1112 15.7764 16.0768C15.9248 16.0424 16.042 15.9252 16.0764 15.7768C16.1108 15.6268 16.0561 15.4721 15.9373 15.3752L14.2373 13.6752C14.1623 13.5956 14.0592 13.5518 13.9498 13.5502C13.9373 13.5502 13.9248 13.5502 13.9123 13.5502C13.8998 13.5502 13.8873 13.5502 13.8748 13.5502ZM9.96231 15.1877C9.94513 15.1909 9.92794 15.1956 9.91231 15.2002C9.72638 15.2424 9.59513 15.4096 9.59981 15.6002V18.0002C9.59825 18.144 9.67325 18.2784 9.79825 18.3518C9.92325 18.4237 10.0764 18.4237 10.2014 18.3518C10.3264 18.2784 10.4014 18.144 10.3998 18.0002V15.6002C10.4045 15.4846 10.3576 15.3737 10.2748 15.2956C10.1904 15.2159 10.0764 15.1768 9.96231 15.1877Z" fill="#6B7280"/>
</svg>
