<svg width="20" height="20" viewBox="0 0 20 20" fill="none" xmlns="http://www.w3.org/2000/svg">
<g clip-path="url(#clip0_15452_2963)">
<path d="M10.0008 0.799805C4.92459 0.799805 0.800781 4.92362 0.800781 9.9998C0.800781 15.076 4.92459 19.1998 10.0008 19.1998C15.077 19.1998 19.2008 15.076 19.2008 9.9998C19.2008 4.92362 15.077 0.799805 10.0008 0.799805ZM10.0008 1.5998C14.6446 1.5998 18.4008 5.35599 18.4008 9.9998C18.4008 14.6436 14.6446 18.3998 10.0008 18.3998C5.35697 18.3998 1.60078 14.6436 1.60078 9.9998C1.60078 5.35599 5.35697 1.5998 10.0008 1.5998ZM13.1969 6.39434C13.0914 6.39683 12.9911 6.44092 12.918 6.51699L10.0008 9.43418L7.08359 6.51699C7.04632 6.47867 7.00174 6.44822 6.95249 6.42742C6.90325 6.40662 6.85033 6.3959 6.79688 6.3959C6.7173 6.39592 6.63954 6.41967 6.57354 6.46412C6.50753 6.50856 6.45629 6.57168 6.42634 6.64541C6.3964 6.71913 6.38912 6.80011 6.40545 6.87799C6.42177 6.95587 6.46094 7.02712 6.51797 7.08262L9.43516 9.9998L6.51797 12.917C6.47958 12.9539 6.44893 12.998 6.42782 13.0468C6.4067 13.0957 6.39555 13.1483 6.395 13.2015C6.39446 13.2547 6.40455 13.3075 6.42466 13.3568C6.44478 13.406 6.47452 13.4508 6.51215 13.4884C6.54978 13.5261 6.59455 13.5558 6.64382 13.5759C6.69309 13.596 6.74588 13.6061 6.7991 13.6056C6.85231 13.605 6.90489 13.5939 6.95374 13.5728C7.00259 13.5517 7.04674 13.521 7.08359 13.4826L10.0008 10.5654L12.918 13.4826C12.9548 13.521 12.999 13.5517 13.0478 13.5728C13.0967 13.5939 13.1493 13.605 13.2025 13.6056C13.2557 13.6061 13.3085 13.596 13.3577 13.5759C13.407 13.5558 13.4518 13.5261 13.4894 13.4884C13.527 13.4508 13.5568 13.406 13.5769 13.3568C13.597 13.3075 13.6071 13.2547 13.6066 13.2015C13.606 13.1483 13.5949 13.0957 13.5737 13.0468C13.5526 12.998 13.522 12.9539 13.4836 12.917L10.5664 9.9998L13.4836 7.08262C13.5417 7.02676 13.5816 6.95465 13.598 6.87575C13.6144 6.79685 13.6066 6.71483 13.5756 6.64043C13.5446 6.56604 13.4919 6.50274 13.4243 6.45883C13.3567 6.41491 13.2774 6.39243 13.1969 6.39434Z" fill="#6B7280"/>
</g>
<defs>
<clipPath id="clip0_15452_2963">
<rect width="20" height="20" fill="white"/>
</clipPath>
</defs>
</svg>
